<svg xmlns="http://www.w3.org/2000/svg" width="700" height="550"><g class="barchart" transform="translate(6,36)"><g class="phrase" transform="translate(68,0)"><rect class="period" width="20" y="363.01279999999997" height="24.98720000000003" style="fill: #ff0000;"></rect><rect class="period" width="20" y="362.0816" height="0.9311999999999898" style="fill: #808080;"></rect><text y="388" transform="rotate(45,0,388)" dy="1.5" dx="9" style="font-family: Helvetica, sans-serif; font-size: 12px; font-weight: bold;">Ale (671)</text></g><g class="phrase" transform="translate(98,0)"><rect class="period" width="20" y="364.0992" height="23.900800000000004" style="fill: #ff0000;"></rect><rect class="period" width="20" y="363.556" height="0.543200000000013" style="fill: #808080;"></rect><text y="388" transform="rotate(45,0,388)" dy="1.5" dx="9" style="font-family: Helvetica, sans-serif; font-size: 12px; font-weight: bold;">Alex (492)</text></g><g class="phrase" transform="translate(128,0)"><rect class="period" width="20" y="364.4872" height="23.512800000000027" style="fill: #ff0000;"></rect><rect class="period" width="20" y="363.944" height="0.5431999999999562" style="fill: #808080;"></rect><text y="388" transform="rotate(45,0,388)" dy="1.5" dx="9" style="font-family: Helvetica, sans-serif; font-size: 12px; font-weight: bold;">Alexa (367)</text></g><g class="phrase" transform="translate(158,0)"><rect class="period" width="20" y="366.8928" height="21.107199999999978" style="fill: #ff0000;"></rect><rect class="period" width="20" y="366.66" height="0.23279999999999745" style="fill: #808080;"></rect><text y="388" transform="rotate(45,0,388)" dy="1.5" dx="9" style="font-family: Helvetica, sans-serif; font-size: 12px; font-weight: bold;">Alexander (59)</text></g><g class="phrase" transform="translate(188,0)"><rect class="period" width="20" y="367.1256" height="20.87439999999998" style="fill: #ff0000;"></rect><rect class="period" width="20" y="366.8928" height="0.23279999999999745" style="fill: #808080;"></rect><text y="388" transform="rotate(45,0,388)" dy="1.5" dx="9" style="font-family: Helvetica, sans-serif; font-size: 12px; font-weight: bold;">Alexander Matt (2)</text></g><g class="phrase" transform="translate(218,0)"><rect class="period" width="20" y="310.7104" height="77.28960000000001" style="fill: #0000ff;"></rect><rect class="period" width="20" y="309.0808" height="1.6295999999999822" style="fill: #808080;"></rect><text y="388" transform="rotate(45,0,388)" dy="1.5" dx="9" style="font-family: Helvetica, sans-serif; font-size: 12px; font-weight: bold;">Ale (671)</text></g><g class="phrase" transform="translate(248,0)"><rect class="period" width="20" y="334.7664" height="53.233600000000024" style="fill: #0000ff;"></rect><rect class="period" width="20" y="333.4472" height="1.3191999999999666" style="fill: #808080;"></rect><text y="388" transform="rotate(45,0,388)" dy="1.5" dx="9" style="font-family: Helvetica, sans-serif; font-size: 12px; font-weight: bold;">Alex (492)</text></g><g class="phrase" transform="translate(278,0)"><rect class="period" width="20" y="351.3728" height="36.627200000000016" style="fill: #0000ff;"></rect><rect class="period" width="20" y="350.4416" height="0.9311999999999898" style="fill: #808080;"></rect><text y="388" transform="rotate(45,0,388)" dy="1.5" dx="9" style="font-family: Helvetica, sans-serif; font-size: 12px; font-weight: bold;">Alexa (367)</text></g><g class="phrase" transform="translate(308,0)"><rect class="period" width="20" y="381.792" height="6.208000000000027" style="fill: #0000ff;"></rect><rect class="period" width="20" y="381.5592" height="0.23279999999999745" style="fill: #808080;"></rect><text y="388" transform="rotate(45,0,388)" dy="1.5" dx="9" style="font-family: Helvetica, sans-serif; font-size: 12px; font-weight: bold;">Alexander (59)</text></g><g class="phrase" transform="translate(338,0)"><rect class="period" width="20" y="382.0248" height="5.9751999999999725" style="fill: #0000ff;"></rect><rect class="period" width="20" y="381.5592" height="0.46560000000005175" style="fill: #808080;"></rect><text y="388" transform="rotate(45,0,388)" dy="1.5" dx="9" style="font-family: Helvetica, sans-serif; font-size: 12px; font-weight: bold;">Alexander Matt (2)</text></g><g class="phrase" transform="translate(368,0)"><rect class="period" width="20" y="34.6096" height="353.3904" style="fill: #008000;"></rect><rect class="period" width="20" y="33.057600000000036" height="1.551999999999964" style="fill: #808080;"></rect><text y="388" transform="rotate(45,0,388)" dy="1.5" dx="9" style="font-family: Helvetica, sans-serif; font-size: 12px; font-weight: bold;">Ale (671)</text></g><g class="phrase" transform="translate(398,0)"><rect class="period" width="20" y="32.591999999999985" height="355.408" style="fill: #008000;"></rect><rect class="period" width="20" y="31.893599999999992" height="0.6983999999999924" style="fill: #808080;"></rect><text y="388" transform="rotate(45,0,388)" dy="1.5" dx="9" style="font-family: Helvetica, sans-serif; font-size: 12px; font-weight: bold;">Alex (492)</text></g><g class="phrase" transform="translate(428,0)"><rect class="period" width="20" y="37.40319999999997" height="350.59680000000003" style="fill: #008000;"></rect><rect class="period" width="20" y="36.937599999999975" height="0.4655999999999949" style="fill: #808080;"></rect><text y="388" transform="rotate(45,0,388)" dy="1.5" dx="9" style="font-family: Helvetica, sans-serif; font-size: 12px; font-weight: bold;">Alexa (367)</text></g><g class="phrase" transform="translate(458,0)"><rect class="period" width="20" y="42.757600000000025" height="345.2424" style="fill: #008000;"></rect><rect class="period" width="20" y="42.60239999999999" height="0.1552000000000362" style="fill: #808080;"></rect><text y="388" transform="rotate(45,0,388)" dy="1.5" dx="9" style="font-family: Helvetica, sans-serif; font-size: 12px; font-weight: bold;">Alexander (59)</text></g><g class="phrase" transform="translate(488,0)"><rect class="period" width="20" y="42.68000000000001" height="345.32" style="fill: #008000;"></rect><rect class="period" width="20" y="42.136799999999994" height="0.543200000000013" style="fill: #808080;"></rect><text y="388" transform="rotate(45,0,388)" dy="1.5" dx="9" style="font-family: Helvetica, sans-serif; font-size: 12px; font-weight: bold;">Alexander Matt (2)</text></g><g class="axis" transform="translate(64,0)"><g class="tick major" style="opacity: 1;" transform="translate(0,388)"><line x2="-6" y2="0" style="fill: none; stroke: #000000; shape-rendering: crispedges;"></line><text x="-9" y="0" dy=".32em" style="text-anchor: end; font-size: 10px; font-family: Helvetica, sans-serif;">0</text></g><g class="tick major" style="opacity: 1;" transform="translate(0,349.2)"><line x2="-6" y2="0" style="fill: none; stroke: #000000; shape-rendering: crispedges;"></line><text x="-9" y="0" dy=".32em" style="text-anchor: end; font-size: 10px; font-family: Helvetica, sans-serif;">100</text></g><g class="tick major" style="opacity: 1;" transform="translate(0,310.4)"><line x2="-6" y2="0" style="fill: none; stroke: #000000; shape-rendering: crispedges;"></line><text x="-9" y="0" dy=".32em" style="text-anchor: end; font-size: 10px; font-family: Helvetica, sans-serif;">200</text></g><g class="tick major" style="opacity: 1;" transform="translate(0,271.6)"><line x2="-6" y2="0" style="fill: none; stroke: #000000; shape-rendering: crispedges;"></line><text x="-9" y="0" dy=".32em" style="text-anchor: end; font-size: 10px; font-family: Helvetica, sans-serif;">300</text></g><g class="tick major" style="opacity: 1;" transform="translate(0,232.79999999999998)"><line x2="-6" y2="0" style="fill: none; stroke: #000000; shape-rendering: crispedges;"></line><text x="-9" y="0" dy=".32em" style="text-anchor: end; font-size: 10px; font-family: Helvetica, sans-serif;">400</text></g><g class="tick major" style="opacity: 1;" transform="translate(0,194)"><line x2="-6" y2="0" style="fill: none; stroke: #000000; shape-rendering: crispedges;"></line><text x="-9" y="0" dy=".32em" style="text-anchor: end; font-size: 10px; font-family: Helvetica, sans-serif;">500</text></g><g class="tick major" style="opacity: 1;" transform="translate(0,155.20000000000002)"><line x2="-6" y2="0" style="fill: none; stroke: #000000; shape-rendering: crispedges;"></line><text x="-9" y="0" dy=".32em" style="text-anchor: end; font-size: 10px; font-family: Helvetica, sans-serif;">600</text></g><g class="tick major" style="opacity: 1;" transform="translate(0,116.39999999999998)"><line x2="-6" y2="0" style="fill: none; stroke: #000000; shape-rendering: crispedges;"></line><text x="-9" y="0" dy=".32em" style="text-anchor: end; font-size: 10px; font-family: Helvetica, sans-serif;">700</text></g><g class="tick major" style="opacity: 1;" transform="translate(0,77.59999999999997)"><line x2="-6" y2="0" style="fill: none; stroke: #000000; shape-rendering: crispedges;"></line><text x="-9" y="0" dy=".32em" style="text-anchor: end; font-size: 10px; font-family: Helvetica, sans-serif;">800</text></g><g class="tick major" style="opacity: 1;" transform="translate(0,38.80000000000001)"><line x2="-6" y2="0" style="fill: none; stroke: #000000; shape-rendering: crispedges;"></line><text x="-9" y="0" dy=".32em" style="text-anchor: end; font-size: 10px; font-family: Helvetica, sans-serif;">900</text></g><g class="tick major" style="opacity: 1;" transform="translate(0,0)"><line x2="-6" y2="0" style="fill: none; stroke: #000000; shape-rendering: crispedges;"></line><text x="-9" y="0" dy=".32em" style="text-anchor: end; font-size: 10px; font-family: Helvetica, sans-serif;">1,000</text></g><path class="domain" d="M-6,0H0V388H-6" style="fill: none; stroke: #000000; shape-rendering: crispedges;"></path></g><text class="axis-label" x="15" y="194" text-anchor="middle" transform="rotate(-90,15,194)">Time (ms)</text><line class="axis" x1="64" y1="388" x2="660" y2="388" stroke="black" style="fill: none; stroke: #000000; shape-rendering: crispedges;"></line></g><text x="337.5" y="22" text-anchor="middle" style="font-family: serif; font-size: 20px;">Chromium 25.0.1364.160</text><g class="legend"><rect class="legend-item" width="10" height="10" y="48" x="573" style="fill: #008000;"></rect><rect class="legend-item" width="10" height="10" y="66" x="573" style="fill: #0000ff;"></rect><rect class="legend-item" width="10" height="10" y="84" x="573" style="fill: #ff0000;"></rect><rect class="legend-item" width="10" height="10" y="102" x="573" style="fill: #808080;"></rect><text x="587" y="48" dy=".8em" style="font-family: Helvetica, sans-serif; font-size: 12px; letter-spacing: 0.1em;">WebSQL</text><text x="587" y="66" dy=".8em" style="font-family: Helvetica, sans-serif; font-size: 12px; letter-spacing: 0.1em;">IndexedDB</text><text x="587" y="84" dy=".8em" style="font-family: Helvetica, sans-serif; font-size: 12px; letter-spacing: 0.1em;">localStorage</text><text x="587" y="102" dy=".8em" style="font-family: Helvetica, sans-serif; font-size: 12px; letter-spacing: 0.1em;">processing</text></g></svg>