<svg xmlns="http://www.w3.org/2000/svg" width="700" height="550"><g class="barchart" transform="translate(6,36)"><g class="phrase" transform="translate(68,0)"><rect class="period" width="20" y="381.96659999999997" height="6.033400000000029" style="fill: #ff0000;"></rect><rect class="period" width="20" y="380.6862" height="1.280399999999986" style="fill: #808080;"></rect><text y="388" transform="rotate(45,0,388)" dy="1.5" dx="9" style="font-family: Helvetica, sans-serif; font-size: 12px; font-weight: bold;">Al (3790)</text></g><g class="phrase" transform="translate(98,0)"><rect class="period" width="20" y="382.1994" height="5.800599999999974" style="fill: #ff0000;"></rect><rect class="period" width="20" y="382.0054" height="0.19400000000001683" style="fill: #808080;"></rect><text y="388" transform="rotate(45,0,388)" dy="1.5" dx="9" style="font-family: Helvetica, sans-serif; font-size: 12px; font-weight: bold;">Ale (671)</text></g><g class="phrase" transform="translate(128,0)"><rect class="period" width="20" y="382.1606" height="5.839400000000012" style="fill: #ff0000;"></rect><rect class="period" width="20" y="382.0248" height="0.13579999999996062" style="fill: #808080;"></rect><text y="388" transform="rotate(45,0,388)" dy="1.5" dx="9" style="font-family: Helvetica, sans-serif; font-size: 12px; font-weight: bold;">Alex (492)</text></g><g class="phrase" transform="translate(158,0)"><rect class="period" width="20" y="382.3352" height="5.664800000000014" style="fill: #ff0000;"></rect><rect class="period" width="20" y="382.2382" height="0.09699999999997999" style="fill: #808080;"></rect><text y="388" transform="rotate(45,0,388)" dy="1.5" dx="9" style="font-family: Helvetica, sans-serif; font-size: 12px; font-weight: bold;">Alexa (367)</text></g><g class="phrase" transform="translate(188,0)"><rect class="period" width="20" y="383.0918" height="4.908200000000022" style="fill: #ff0000;"></rect><rect class="period" width="20" y="383.0724" height="0.019399999999961892" style="fill: #808080;"></rect><text y="388" transform="rotate(45,0,388)" dy="1.5" dx="9" style="font-family: Helvetica, sans-serif; font-size: 12px; font-weight: bold;">Alexander (59)</text></g><g class="phrase" transform="translate(218,0)"><rect class="period" width="20" y="382.9366" height="5.0634000000000015" style="fill: #ff0000;"></rect><rect class="period" width="20" y="382.8978" height="0.03879999999998063" style="fill: #808080;"></rect><text y="388" transform="rotate(45,0,388)" dy="1.5" dx="9" style="font-family: Helvetica, sans-serif; font-size: 12px; font-weight: bold;">Alexander Matt (2)</text></g><g class="phrase" transform="translate(248,0)"><rect class="period" width="20" y="261.5508" height="126.44920000000002" style="fill: #0000ff;"></rect><rect class="period" width="20" y="260.154" height="1.3967999999999847" style="fill: #808080;"></rect><text y="388" transform="rotate(45,0,388)" dy="1.5" dx="9" style="font-family: Helvetica, sans-serif; font-size: 12px; font-weight: bold;">Al (3790)</text></g><g class="phrase" transform="translate(278,0)"><rect class="period" width="20" y="376.9032" height="11.096799999999973" style="fill: #0000ff;"></rect><rect class="period" width="20" y="376.6898" height="0.21340000000003556" style="fill: #808080;"></rect><text y="388" transform="rotate(45,0,388)" dy="1.5" dx="9" style="font-family: Helvetica, sans-serif; font-size: 12px; font-weight: bold;">Ale (671)</text></g><g class="phrase" transform="translate(308,0)"><rect class="period" width="20" y="380.4922" height="7.507799999999975" style="fill: #0000ff;"></rect><rect class="period" width="20" y="380.143" height="0.349200000000053" style="fill: #808080;"></rect><text y="388" transform="rotate(45,0,388)" dy="1.5" dx="9" style="font-family: Helvetica, sans-serif; font-size: 12px; font-weight: bold;">Alex (492)</text></g><g class="phrase" transform="translate(338,0)"><rect class="period" width="20" y="382.4904" height="5.509599999999978" style="fill: #0000ff;"></rect><rect class="period" width="20" y="382.3934" height="0.09700000000003683" style="fill: #808080;"></rect><text y="388" transform="rotate(45,0,388)" dy="1.5" dx="9" style="font-family: Helvetica, sans-serif; font-size: 12px; font-weight: bold;">Alexa (367)</text></g><g class="phrase" transform="translate(368,0)"><rect class="period" width="20" y="386.7584" height="1.2416000000000054" style="fill: #0000ff;"></rect><rect class="period" width="20" y="386.7002" height="0.05819999999999936" style="fill: #808080;"></rect><text y="388" transform="rotate(45,0,388)" dy="1.5" dx="9" style="font-family: Helvetica, sans-serif; font-size: 12px; font-weight: bold;">Alexander (59)</text></g><g class="phrase" transform="translate(398,0)"><rect class="period" width="20" y="386.7778" height="1.2221999999999866" style="fill: #0000ff;"></rect><rect class="period" width="20" y="386.7196" height="0.05819999999999936" style="fill: #808080;"></rect><text y="388" transform="rotate(45,0,388)" dy="1.5" dx="9" style="font-family: Helvetica, sans-serif; font-size: 12px; font-weight: bold;">Alexander Matt (2)</text></g><g class="phrase" transform="translate(428,0)"><rect class="period" width="20" y="297.4602" height="90.53980000000001" style="fill: #008000;"></rect><rect class="period" width="20" y="295.4814" height="1.9787999999999784" style="fill: #808080;"></rect><text y="388" transform="rotate(45,0,388)" dy="1.5" dx="9" style="font-family: Helvetica, sans-serif; font-size: 12px; font-weight: bold;">Al (3790)</text></g><g class="phrase" transform="translate(458,0)"><rect class="period" width="20" y="303.1638" height="84.83620000000002" style="fill: #008000;"></rect><rect class="period" width="20" y="302.931" height="0.23279999999999745" style="fill: #808080;"></rect><text y="388" transform="rotate(45,0,388)" dy="1.5" dx="9" style="font-family: Helvetica, sans-serif; font-size: 12px; font-weight: bold;">Ale (671)</text></g><g class="phrase" transform="translate(488,0)"><rect class="period" width="20" y="304.38599999999997" height="83.61400000000003" style="fill: #008000;"></rect><rect class="period" width="20" y="303.901" height="0.4849999999999568" style="fill: #808080;"></rect><text y="388" transform="rotate(45,0,388)" dy="1.5" dx="9" style="font-family: Helvetica, sans-serif; font-size: 12px; font-weight: bold;">Alex (492)</text></g><g class="phrase" transform="translate(518,0)"><rect class="period" width="20" y="304.4636" height="83.53640000000001" style="fill: #008000;"></rect><rect class="period" width="20" y="304.2502" height="0.21339999999997872" style="fill: #808080;"></rect><text y="388" transform="rotate(45,0,388)" dy="1.5" dx="9" style="font-family: Helvetica, sans-serif; font-size: 12px; font-weight: bold;">Alexa (367)</text></g><g class="phrase" transform="translate(548,0)"><rect class="period" width="20" y="305.5888" height="82.41120000000001" style="fill: #008000;"></rect><rect class="period" width="20" y="305.5306" height="0.05819999999999936" style="fill: #808080;"></rect><text y="388" transform="rotate(45,0,388)" dy="1.5" dx="9" style="font-family: Helvetica, sans-serif; font-size: 12px; font-weight: bold;">Alexander (59)</text></g><g class="phrase" transform="translate(578,0)"><rect class="period" width="20" y="305.8216" height="82.17840000000001" style="fill: #008000;"></rect><rect class="period" width="20" y="305.6858" height="0.13580000000001746" style="fill: #808080;"></rect><text y="388" transform="rotate(45,0,388)" dy="1.5" dx="9" style="font-family: Helvetica, sans-serif; font-size: 12px; font-weight: bold;">Alexander Matt (2)</text></g><g class="axis" transform="translate(64,0)"><g class="tick major" transform="translate(0,388)" style="opacity: 1;"><line x2="-6" y2="0" style="fill: none; stroke: #000000; shape-rendering: crispedges;"></line><text x="-9" y="0" dy=".32em" style="text-anchor: end; font-size: 10px; font-family: Helvetica, sans-serif;">0</text></g><g class="tick major" transform="translate(0,339.5)" style="opacity: 1;"><line x2="-6" y2="0" style="fill: none; stroke: #000000; shape-rendering: crispedges;"></line><text x="-9" y="0" dy=".32em" style="text-anchor: end; font-size: 10px; font-family: Helvetica, sans-serif;">500</text></g><g class="tick major" transform="translate(0,291)" style="opacity: 1;"><line x2="-6" y2="0" style="fill: none; stroke: #000000; shape-rendering: crispedges;"></line><text x="-9" y="0" dy=".32em" style="text-anchor: end; font-size: 10px; font-family: Helvetica, sans-serif;">1,000</text></g><g class="tick major" transform="translate(0,242.5)" style="opacity: 1;"><line x2="-6" y2="0" style="fill: none; stroke: #000000; shape-rendering: crispedges;"></line><text x="-9" y="0" dy=".32em" style="text-anchor: end; font-size: 10px; font-family: Helvetica, sans-serif;">1,500</text></g><g class="tick major" transform="translate(0,194)" style="opacity: 1;"><line x2="-6" y2="0" style="fill: none; stroke: #000000; shape-rendering: crispedges;"></line><text x="-9" y="0" dy=".32em" style="text-anchor: end; font-size: 10px; font-family: Helvetica, sans-serif;">2,000</text></g><g class="tick major" transform="translate(0,145.5)" style="opacity: 1;"><line x2="-6" y2="0" style="fill: none; stroke: #000000; shape-rendering: crispedges;"></line><text x="-9" y="0" dy=".32em" style="text-anchor: end; font-size: 10px; font-family: Helvetica, sans-serif;">2,500</text></g><g class="tick major" transform="translate(0,97)" style="opacity: 1;"><line x2="-6" y2="0" style="fill: none; stroke: #000000; shape-rendering: crispedges;"></line><text x="-9" y="0" dy=".32em" style="text-anchor: end; font-size: 10px; font-family: Helvetica, sans-serif;">3,000</text></g><g class="tick major" transform="translate(0,48.5)" style="opacity: 1;"><line x2="-6" y2="0" style="fill: none; stroke: #000000; shape-rendering: crispedges;"></line><text x="-9" y="0" dy=".32em" style="text-anchor: end; font-size: 10px; font-family: Helvetica, sans-serif;">3,500</text></g><g class="tick major" transform="translate(0,0)" style="opacity: 1;"><line x2="-6" y2="0" style="fill: none; stroke: #000000; shape-rendering: crispedges;"></line><text x="-9" y="0" dy=".32em" style="text-anchor: end; font-size: 10px; font-family: Helvetica, sans-serif;">4,000</text></g><path class="domain" d="M-6,0H0V388H-6" style="fill: none; stroke: #000000; shape-rendering: crispedges;"></path></g><text class="axis-label" x="15" y="194" text-anchor="middle" transform="rotate(-90,15,194)">Time (ms)</text><line class="axis" x1="64" y1="388" x2="660" y2="388" stroke="black" style="fill: none; stroke: #000000; shape-rendering: crispedges;"></line></g><text x="337.5" y="22" text-anchor="middle" style="font-family: serif; font-size: 20px;">Chromium 27.0.1449.0</text><g class="legend"><rect class="legend-item" width="10" height="10" y="48" x="573" style="fill: #008000;"></rect><rect class="legend-item" width="10" height="10" y="66" x="573" style="fill: #0000ff;"></rect><rect class="legend-item" width="10" height="10" y="84" x="573" style="fill: #ff0000;"></rect><rect class="legend-item" width="10" height="10" y="102" x="573" style="fill: #808080;"></rect><text x="587" y="48" dy=".8em" style="font-family: Helvetica, sans-serif; font-size: 12px; letter-spacing: 0.1em;">WebSQL</text><text x="587" y="66" dy=".8em" style="font-family: Helvetica, sans-serif; font-size: 12px; letter-spacing: 0.1em;">IndexedDB</text><text x="587" y="84" dy=".8em" style="font-family: Helvetica, sans-serif; font-size: 12px; letter-spacing: 0.1em;">localStorage</text><text x="587" y="102" dy=".8em" style="font-family: Helvetica, sans-serif; font-size: 12px; letter-spacing: 0.1em;">processing</text></g></svg>