<svg xmlns="http://www.w3.org/2000/svg" width="700" height="550"><g class="barchart" transform="translate(6,36)"><g class="phrase" transform="translate(68,0)"><rect class="period" width="20" y="381.8114" height="6.188600000000008" style="fill: #ff0000;"></rect><rect class="period" width="20" y="380.4922" height="1.3191999999999666" style="fill: #808080;"></rect><text y="388" transform="rotate(45,0,388)" dy="1.5" dx="9" style="font-family: Helvetica, sans-serif; font-size: 12px; font-weight: bold;">Al (3790)</text></g><g class="phrase" transform="translate(98,0)"><rect class="period" width="20" y="381.7532" height="6.2468000000000075" style="fill: #ff0000;"></rect><rect class="period" width="20" y="381.5204" height="0.23279999999999745" style="fill: #808080;"></rect><text y="388" transform="rotate(45,0,388)" dy="1.5" dx="9" style="font-family: Helvetica, sans-serif; font-size: 12px; font-weight: bold;">Ale (671)</text></g><g class="phrase" transform="translate(128,0)"><rect class="period" width="20" y="382.0248" height="5.9751999999999725" style="fill: #ff0000;"></rect><rect class="period" width="20" y="381.889" height="0.13580000000001746" style="fill: #808080;"></rect><text y="388" transform="rotate(45,0,388)" dy="1.5" dx="9" style="font-family: Helvetica, sans-serif; font-size: 12px; font-weight: bold;">Alex (492)</text></g><g class="phrase" transform="translate(158,0)"><rect class="period" width="20" y="382.1218" height="5.8781999999999925" style="fill: #ff0000;"></rect><rect class="period" width="20" y="381.986" height="0.13580000000001746" style="fill: #808080;"></rect><text y="388" transform="rotate(45,0,388)" dy="1.5" dx="9" style="font-family: Helvetica, sans-serif; font-size: 12px; font-weight: bold;">Alexa (367)</text></g><g class="phrase" transform="translate(188,0)"><rect class="period" width="20" y="382.7232" height="5.27679999999998" style="fill: #ff0000;"></rect><rect class="period" width="20" y="382.665" height="0.05819999999999936" style="fill: #808080;"></rect><text y="388" transform="rotate(45,0,388)" dy="1.5" dx="9" style="font-family: Helvetica, sans-serif; font-size: 12px; font-weight: bold;">Alexander (59)</text></g><g class="phrase" transform="translate(218,0)"><rect class="period" width="20" y="382.7814" height="5.218599999999981" style="fill: #ff0000;"></rect><rect class="period" width="20" y="382.7232" height="0.05819999999999936" style="fill: #808080;"></rect><text y="388" transform="rotate(45,0,388)" dy="1.5" dx="9" style="font-family: Helvetica, sans-serif; font-size: 12px; font-weight: bold;">Alexander Matt (2)</text></g><g class="phrase" transform="translate(248,0)"><rect class="period" width="20" y="195.9594" height="192.0406" style="fill: #0000ff;"></rect><rect class="period" width="20" y="194.3492" height="1.6101999999999919" style="fill: #808080;"></rect><text y="388" transform="rotate(45,0,388)" dy="1.5" dx="9" style="font-family: Helvetica, sans-serif; font-size: 12px; font-weight: bold;">Al (3790)</text></g><g class="phrase" transform="translate(278,0)"><rect class="period" width="20" y="368.6776" height="19.322400000000016" style="fill: #0000ff;"></rect><rect class="period" width="20" y="368.2702" height="0.40739999999999554" style="fill: #808080;"></rect><text y="388" transform="rotate(45,0,388)" dy="1.5" dx="9" style="font-family: Helvetica, sans-serif; font-size: 12px; font-weight: bold;">Ale (671)</text></g><g class="phrase" transform="translate(308,0)"><rect class="period" width="20" y="374.6916" height="13.308400000000006" style="fill: #0000ff;"></rect><rect class="period" width="20" y="374.3618" height="0.32979999999997744" style="fill: #808080;"></rect><text y="388" transform="rotate(45,0,388)" dy="1.5" dx="9" style="font-family: Helvetica, sans-serif; font-size: 12px; font-weight: bold;">Alex (492)</text></g><g class="phrase" transform="translate(338,0)"><rect class="period" width="20" y="378.8432" height="9.156799999999976" style="fill: #0000ff;"></rect><rect class="period" width="20" y="378.6104" height="0.23279999999999745" style="fill: #808080;"></rect><text y="388" transform="rotate(45,0,388)" dy="1.5" dx="9" style="font-family: Helvetica, sans-serif; font-size: 12px; font-weight: bold;">Alexa (367)</text></g><g class="phrase" transform="translate(368,0)"><rect class="period" width="20" y="386.448" height="1.552000000000021" style="fill: #0000ff;"></rect><rect class="period" width="20" y="386.3898" height="0.05819999999999936" style="fill: #808080;"></rect><text y="388" transform="rotate(45,0,388)" dy="1.5" dx="9" style="font-family: Helvetica, sans-serif; font-size: 12px; font-weight: bold;">Alexander (59)</text></g><g class="phrase" transform="translate(398,0)"><rect class="period" width="20" y="386.5062" height="1.4938000000000216" style="fill: #0000ff;"></rect><rect class="period" width="20" y="386.3898" height="0.11639999999999873" style="fill: #808080;"></rect><text y="388" transform="rotate(45,0,388)" dy="1.5" dx="9" style="font-family: Helvetica, sans-serif; font-size: 12px; font-weight: bold;">Alexander Matt (2)</text></g><g class="phrase" transform="translate(428,0)"><rect class="period" width="20" y="294.2786" height="93.72140000000002" style="fill: #008000;"></rect><rect class="period" width="20" y="292.37739999999997" height="1.901200000000017" style="fill: #808080;"></rect><text y="388" transform="rotate(45,0,388)" dy="1.5" dx="9" style="font-family: Helvetica, sans-serif; font-size: 12px; font-weight: bold;">Al (3790)</text></g><g class="phrase" transform="translate(458,0)"><rect class="period" width="20" y="299.6524" height="88.3476" style="fill: #008000;"></rect><rect class="period" width="20" y="299.2644" height="0.3879999999999768" style="fill: #808080;"></rect><text y="388" transform="rotate(45,0,388)" dy="1.5" dx="9" style="font-family: Helvetica, sans-serif; font-size: 12px; font-weight: bold;">Ale (671)</text></g><g class="phrase" transform="translate(488,0)"><rect class="period" width="20" y="299.148" height="88.85199999999998" style="fill: #008000;"></rect><rect class="period" width="20" y="298.97339999999997" height="0.17460000000005493" style="fill: #808080;"></rect><text y="388" transform="rotate(45,0,388)" dy="1.5" dx="9" style="font-family: Helvetica, sans-serif; font-size: 12px; font-weight: bold;">Alex (492)</text></g><g class="phrase" transform="translate(518,0)"><rect class="period" width="20" y="300.3508" height="87.64920000000001" style="fill: #008000;"></rect><rect class="period" width="20" y="300.2344" height="0.11639999999999873" style="fill: #808080;"></rect><text y="388" transform="rotate(45,0,388)" dy="1.5" dx="9" style="font-family: Helvetica, sans-serif; font-size: 12px; font-weight: bold;">Alexa (367)</text></g><g class="phrase" transform="translate(548,0)"><rect class="period" width="20" y="301.6894" height="86.31060000000002" style="fill: #008000;"></rect><rect class="period" width="20" y="301.6506" height="0.03879999999998063" style="fill: #808080;"></rect><text y="388" transform="rotate(45,0,388)" dy="1.5" dx="9" style="font-family: Helvetica, sans-serif; font-size: 12px; font-weight: bold;">Alexander (59)</text></g><g class="phrase" transform="translate(578,0)"><rect class="period" width="20" y="301.67" height="86.32999999999998" style="fill: #008000;"></rect><rect class="period" width="20" y="301.5342" height="0.13580000000001746" style="fill: #808080;"></rect><text y="388" transform="rotate(45,0,388)" dy="1.5" dx="9" style="font-family: Helvetica, sans-serif; font-size: 12px; font-weight: bold;">Alexander Matt (2)</text></g><g class="axis" transform="translate(64,0)"><g class="tick major" style="opacity: 1;" transform="translate(0,388)"><line x2="-6" y2="0" style="fill: none; stroke: #000000; shape-rendering: crispedges;"></line><text x="-9" y="0" dy=".32em" style="text-anchor: end; font-size: 10px; font-family: Helvetica, sans-serif;">0</text></g><g class="tick major" style="opacity: 1;" transform="translate(0,339.5)"><line x2="-6" y2="0" style="fill: none; stroke: #000000; shape-rendering: crispedges;"></line><text x="-9" y="0" dy=".32em" style="text-anchor: end; font-size: 10px; font-family: Helvetica, sans-serif;">500</text></g><g class="tick major" style="opacity: 1;" transform="translate(0,291)"><line x2="-6" y2="0" style="fill: none; stroke: #000000; shape-rendering: crispedges;"></line><text x="-9" y="0" dy=".32em" style="text-anchor: end; font-size: 10px; font-family: Helvetica, sans-serif;">1,000</text></g><g class="tick major" style="opacity: 1;" transform="translate(0,242.5)"><line x2="-6" y2="0" style="fill: none; stroke: #000000; shape-rendering: crispedges;"></line><text x="-9" y="0" dy=".32em" style="text-anchor: end; font-size: 10px; font-family: Helvetica, sans-serif;">1,500</text></g><g class="tick major" style="opacity: 1;" transform="translate(0,194)"><line x2="-6" y2="0" style="fill: none; stroke: #000000; shape-rendering: crispedges;"></line><text x="-9" y="0" dy=".32em" style="text-anchor: end; font-size: 10px; font-family: Helvetica, sans-serif;">2,000</text></g><g class="tick major" style="opacity: 1;" transform="translate(0,145.5)"><line x2="-6" y2="0" style="fill: none; stroke: #000000; shape-rendering: crispedges;"></line><text x="-9" y="0" dy=".32em" style="text-anchor: end; font-size: 10px; font-family: Helvetica, sans-serif;">2,500</text></g><g class="tick major" style="opacity: 1;" transform="translate(0,97)"><line x2="-6" y2="0" style="fill: none; stroke: #000000; shape-rendering: crispedges;"></line><text x="-9" y="0" dy=".32em" style="text-anchor: end; font-size: 10px; font-family: Helvetica, sans-serif;">3,000</text></g><g class="tick major" style="opacity: 1;" transform="translate(0,48.5)"><line x2="-6" y2="0" style="fill: none; stroke: #000000; shape-rendering: crispedges;"></line><text x="-9" y="0" dy=".32em" style="text-anchor: end; font-size: 10px; font-family: Helvetica, sans-serif;">3,500</text></g><g class="tick major" style="opacity: 1;" transform="translate(0,0)"><line x2="-6" y2="0" style="fill: none; stroke: #000000; shape-rendering: crispedges;"></line><text x="-9" y="0" dy=".32em" style="text-anchor: end; font-size: 10px; font-family: Helvetica, sans-serif;">4,000</text></g><path class="domain" d="M-6,0H0V388H-6" style="fill: none; stroke: #000000; shape-rendering: crispedges;"></path></g><text class="axis-label" x="15" y="194" text-anchor="middle" transform="rotate(-90,15,194)">Time (ms)</text><line class="axis" x1="64" y1="388" x2="660" y2="388" stroke="black" style="fill: none; stroke: #000000; shape-rendering: crispedges;"></line></g><text x="337.5" y="22" text-anchor="middle" style="font-family: serif; font-size: 20px;">Chromium 25.0.1364.160</text><g class="legend"><rect class="legend-item" width="10" height="10" y="48" x="573" style="fill: #008000;"></rect><rect class="legend-item" width="10" height="10" y="66" x="573" style="fill: #0000ff;"></rect><rect class="legend-item" width="10" height="10" y="84" x="573" style="fill: #ff0000;"></rect><rect class="legend-item" width="10" height="10" y="102" x="573" style="fill: #808080;"></rect><text x="587" y="48" dy=".8em" style="font-family: Helvetica, sans-serif; font-size: 12px; letter-spacing: 0.1em;">WebSQL</text><text x="587" y="66" dy=".8em" style="font-family: Helvetica, sans-serif; font-size: 12px; letter-spacing: 0.1em;">IndexedDB</text><text x="587" y="84" dy=".8em" style="font-family: Helvetica, sans-serif; font-size: 12px; letter-spacing: 0.1em;">localStorage</text><text x="587" y="102" dy=".8em" style="font-family: Helvetica, sans-serif; font-size: 12px; letter-spacing: 0.1em;">processing</text></g></svg>