<svg xmlns="http://www.w3.org/2000/svg" width="700" height="550"><g class="barchart" transform="translate(6,36)"><g class="phrase" transform="translate(68,0)"><rect class="period" width="20" y="364.7976" height="23.20240000000001" style="fill: #ff0000;"></rect><rect class="period" width="20" y="364.0216" height="0.7760000000000105" style="fill: #808080;"></rect><text y="388" transform="rotate(45,0,388)" dy="1.5" dx="9" style="font-family: Helvetica, sans-serif; font-size: 12px; font-weight: bold;">Ale (671)</text></g><g class="phrase" transform="translate(98,0)"><rect class="period" width="20" y="364.6424" height="23.35759999999999" style="fill: #ff0000;"></rect><rect class="period" width="20" y="364.0992" height="0.543200000000013" style="fill: #808080;"></rect><text y="388" transform="rotate(45,0,388)" dy="1.5" dx="9" style="font-family: Helvetica, sans-serif; font-size: 12px; font-weight: bold;">Alex (492)</text></g><g class="phrase" transform="translate(128,0)"><rect class="period" width="20" y="365.3408" height="22.6592" style="fill: #ff0000;"></rect><rect class="period" width="20" y="364.9528" height="0.3879999999999768" style="fill: #808080;"></rect><text y="388" transform="rotate(45,0,388)" dy="1.5" dx="9" style="font-family: Helvetica, sans-serif; font-size: 12px; font-weight: bold;">Alexa (367)</text></g><g class="phrase" transform="translate(158,0)"><rect class="period" width="20" y="368.3672" height="19.632799999999975" style="fill: #ff0000;"></rect><rect class="period" width="20" y="368.2896" height="0.0776000000000181" style="fill: #808080;"></rect><text y="388" transform="rotate(45,0,388)" dy="1.5" dx="9" style="font-family: Helvetica, sans-serif; font-size: 12px; font-weight: bold;">Alexander (59)</text></g><g class="phrase" transform="translate(188,0)"><rect class="period" width="20" y="367.7464" height="20.253600000000006" style="fill: #ff0000;"></rect><rect class="period" width="20" y="367.5912" height="0.15519999999997935" style="fill: #808080;"></rect><text y="388" transform="rotate(45,0,388)" dy="1.5" dx="9" style="font-family: Helvetica, sans-serif; font-size: 12px; font-weight: bold;">Alexander Matt (2)</text></g><g class="phrase" transform="translate(218,0)"><rect class="period" width="20" y="343.6128" height="44.38720000000001" style="fill: #0000ff;"></rect><rect class="period" width="20" y="342.7592" height="0.8535999999999717" style="fill: #808080;"></rect><text y="388" transform="rotate(45,0,388)" dy="1.5" dx="9" style="font-family: Helvetica, sans-serif; font-size: 12px; font-weight: bold;">Ale (671)</text></g><g class="phrase" transform="translate(248,0)"><rect class="period" width="20" y="357.9688" height="30.031200000000013" style="fill: #0000ff;"></rect><rect class="period" width="20" y="356.572" height="1.3967999999999847" style="fill: #808080;"></rect><text y="388" transform="rotate(45,0,388)" dy="1.5" dx="9" style="font-family: Helvetica, sans-serif; font-size: 12px; font-weight: bold;">Alex (492)</text></g><g class="phrase" transform="translate(278,0)"><rect class="period" width="20" y="365.9616" height="22.038400000000024" style="fill: #0000ff;"></rect><rect class="period" width="20" y="365.5736" height="0.3879999999999768" style="fill: #808080;"></rect><text y="388" transform="rotate(45,0,388)" dy="1.5" dx="9" style="font-family: Helvetica, sans-serif; font-size: 12px; font-weight: bold;">Alexa (367)</text></g><g class="phrase" transform="translate(308,0)"><rect class="period" width="20" y="383.0336" height="4.9664000000000215" style="fill: #0000ff;"></rect><rect class="period" width="20" y="382.8008" height="0.23279999999999745" style="fill: #808080;"></rect><text y="388" transform="rotate(45,0,388)" dy="1.5" dx="9" style="font-family: Helvetica, sans-serif; font-size: 12px; font-weight: bold;">Alexander (59)</text></g><g class="phrase" transform="translate(338,0)"><rect class="period" width="20" y="383.1112" height="4.888800000000003" style="fill: #0000ff;"></rect><rect class="period" width="20" y="382.8784" height="0.23279999999999745" style="fill: #808080;"></rect><text y="388" transform="rotate(45,0,388)" dy="1.5" dx="9" style="font-family: Helvetica, sans-serif; font-size: 12px; font-weight: bold;">Alexander Matt (2)</text></g><g class="phrase" transform="translate(368,0)"><rect class="period" width="20" y="48.65519999999998" height="339.3448" style="fill: #008000;"></rect><rect class="period" width="20" y="47.72399999999999" height="0.9311999999999898" style="fill: #808080;"></rect><text y="388" transform="rotate(45,0,388)" dy="1.5" dx="9" style="font-family: Helvetica, sans-serif; font-size: 12px; font-weight: bold;">Ale (671)</text></g><g class="phrase" transform="translate(398,0)"><rect class="period" width="20" y="53.54399999999998" height="334.456" style="fill: #008000;"></rect><rect class="period" width="20" y="51.603999999999985" height="1.9399999999999977" style="fill: #808080;"></rect><text y="388" transform="rotate(45,0,388)" dy="1.5" dx="9" style="font-family: Helvetica, sans-serif; font-size: 12px; font-weight: bold;">Alex (492)</text></g><g class="phrase" transform="translate(428,0)"><rect class="period" width="20" y="53.8544" height="334.1456" style="fill: #008000;"></rect><rect class="period" width="20" y="53.00079999999997" height="0.8536000000000286" style="fill: #808080;"></rect><text y="388" transform="rotate(45,0,388)" dy="1.5" dx="9" style="font-family: Helvetica, sans-serif; font-size: 12px; font-weight: bold;">Alexa (367)</text></g><g class="phrase" transform="translate(458,0)"><rect class="period" width="20" y="58.35519999999997" height="329.64480000000003" style="fill: #008000;"></rect><rect class="period" width="20" y="58.12239999999997" height="0.23279999999999745" style="fill: #808080;"></rect><text y="388" transform="rotate(45,0,388)" dy="1.5" dx="9" style="font-family: Helvetica, sans-serif; font-size: 12px; font-weight: bold;">Alexander (59)</text></g><g class="phrase" transform="translate(488,0)"><rect class="period" width="20" y="59.28639999999996" height="328.71360000000004" style="fill: #008000;"></rect><rect class="period" width="20" y="58.7432" height="0.5431999999999562" style="fill: #808080;"></rect><text y="388" transform="rotate(45,0,388)" dy="1.5" dx="9" style="font-family: Helvetica, sans-serif; font-size: 12px; font-weight: bold;">Alexander Matt (2)</text></g><g class="axis" transform="translate(64,0)"><g class="tick major" transform="translate(0,388)" style="opacity: 1;"><line x2="-6" y2="0" style="fill: none; stroke: #000000; shape-rendering: crispedges;"></line><text x="-9" y="0" dy=".32em" style="text-anchor: end; font-size: 10px; font-family: Helvetica, sans-serif;">0</text></g><g class="tick major" transform="translate(0,349.2)" style="opacity: 1;"><line x2="-6" y2="0" style="fill: none; stroke: #000000; shape-rendering: crispedges;"></line><text x="-9" y="0" dy=".32em" style="text-anchor: end; font-size: 10px; font-family: Helvetica, sans-serif;">100</text></g><g class="tick major" transform="translate(0,310.4)" style="opacity: 1;"><line x2="-6" y2="0" style="fill: none; stroke: #000000; shape-rendering: crispedges;"></line><text x="-9" y="0" dy=".32em" style="text-anchor: end; font-size: 10px; font-family: Helvetica, sans-serif;">200</text></g><g class="tick major" transform="translate(0,271.6)" style="opacity: 1;"><line x2="-6" y2="0" style="fill: none; stroke: #000000; shape-rendering: crispedges;"></line><text x="-9" y="0" dy=".32em" style="text-anchor: end; font-size: 10px; font-family: Helvetica, sans-serif;">300</text></g><g class="tick major" transform="translate(0,232.79999999999998)" style="opacity: 1;"><line x2="-6" y2="0" style="fill: none; stroke: #000000; shape-rendering: crispedges;"></line><text x="-9" y="0" dy=".32em" style="text-anchor: end; font-size: 10px; font-family: Helvetica, sans-serif;">400</text></g><g class="tick major" transform="translate(0,194)" style="opacity: 1;"><line x2="-6" y2="0" style="fill: none; stroke: #000000; shape-rendering: crispedges;"></line><text x="-9" y="0" dy=".32em" style="text-anchor: end; font-size: 10px; font-family: Helvetica, sans-serif;">500</text></g><g class="tick major" transform="translate(0,155.20000000000002)" style="opacity: 1;"><line x2="-6" y2="0" style="fill: none; stroke: #000000; shape-rendering: crispedges;"></line><text x="-9" y="0" dy=".32em" style="text-anchor: end; font-size: 10px; font-family: Helvetica, sans-serif;">600</text></g><g class="tick major" transform="translate(0,116.39999999999998)" style="opacity: 1;"><line x2="-6" y2="0" style="fill: none; stroke: #000000; shape-rendering: crispedges;"></line><text x="-9" y="0" dy=".32em" style="text-anchor: end; font-size: 10px; font-family: Helvetica, sans-serif;">700</text></g><g class="tick major" transform="translate(0,77.59999999999997)" style="opacity: 1;"><line x2="-6" y2="0" style="fill: none; stroke: #000000; shape-rendering: crispedges;"></line><text x="-9" y="0" dy=".32em" style="text-anchor: end; font-size: 10px; font-family: Helvetica, sans-serif;">800</text></g><g class="tick major" transform="translate(0,38.80000000000001)" style="opacity: 1;"><line x2="-6" y2="0" style="fill: none; stroke: #000000; shape-rendering: crispedges;"></line><text x="-9" y="0" dy=".32em" style="text-anchor: end; font-size: 10px; font-family: Helvetica, sans-serif;">900</text></g><g class="tick major" transform="translate(0,0)" style="opacity: 1;"><line x2="-6" y2="0" style="fill: none; stroke: #000000; shape-rendering: crispedges;"></line><text x="-9" y="0" dy=".32em" style="text-anchor: end; font-size: 10px; font-family: Helvetica, sans-serif;">1,000</text></g><path class="domain" d="M-6,0H0V388H-6" style="fill: none; stroke: #000000; shape-rendering: crispedges;"></path></g><text class="axis-label" x="15" y="194" text-anchor="middle" transform="rotate(-90,15,194)">Time (ms)</text><line class="axis" x1="64" y1="388" x2="660" y2="388" stroke="black" style="fill: none; stroke: #000000; shape-rendering: crispedges;"></line></g><text x="337.5" y="22" text-anchor="middle" style="font-family: serif; font-size: 20px;">Chromium 27.0.1449.0</text><g class="legend"><rect class="legend-item" width="10" height="10" y="48" x="573" style="fill: #008000;"></rect><rect class="legend-item" width="10" height="10" y="66" x="573" style="fill: #0000ff;"></rect><rect class="legend-item" width="10" height="10" y="84" x="573" style="fill: #ff0000;"></rect><rect class="legend-item" width="10" height="10" y="102" x="573" style="fill: #808080;"></rect><text x="587" y="48" dy=".8em" style="font-family: Helvetica, sans-serif; font-size: 12px; letter-spacing: 0.1em;">WebSQL</text><text x="587" y="66" dy=".8em" style="font-family: Helvetica, sans-serif; font-size: 12px; letter-spacing: 0.1em;">IndexedDB</text><text x="587" y="84" dy=".8em" style="font-family: Helvetica, sans-serif; font-size: 12px; letter-spacing: 0.1em;">localStorage</text><text x="587" y="102" dy=".8em" style="font-family: Helvetica, sans-serif; font-size: 12px; letter-spacing: 0.1em;">processing</text></g></svg>