<svg xmlns="http://www.w3.org/2000/svg" height="550" width="700"><g transform="translate(6,36)" class="barchart"><g transform="translate(68,0)" class="phrase"><rect style="fill: red;" height="8.012200000000007" y="379.9878" width="20" class="period"/><rect style="fill: grey;" height="2.1533999999999764" y="377.8344" width="20" class="period"/><text style="font-family: &quot;Helvetica&quot;,sans-serif; font-size: 12px; font-weight: bold;" dx="9" dy="1.5" transform="rotate(45,0,388)" y="388">Al (3790)</text></g><g transform="translate(98,0)" class="phrase"><rect style="fill: red;" height="7.4302000000000135" y="380.5698" width="20" class="period"/><rect style="fill: grey;" height="0.3879999999999768" y="380.1818" width="20" class="period"/><text style="font-family: &quot;Helvetica&quot;,sans-serif; font-size: 12px; font-weight: bold;" dx="9" dy="1.5" transform="rotate(45,0,388)" y="388">Ale (671)</text></g><g transform="translate(128,0)" class="phrase"><rect style="fill: red;" height="7.197400000000016" y="380.8026" width="20" class="period"/><rect style="fill: grey;" height="0.3103999999999587" y="380.4922" width="20" class="period"/><text style="font-family: &quot;Helvetica&quot;,sans-serif; font-size: 12px; font-weight: bold;" dx="9" dy="1.5" transform="rotate(45,0,388)" y="388">Alex (492)</text></g><g transform="translate(158,0)" class="phrase"><rect style="fill: red;" height="7.236199999999997" y="380.7638" width="20" class="period"/><rect style="fill: grey;" height="0.23279999999999745" y="380.531" width="20" class="period"/><text style="font-family: &quot;Helvetica&quot;,sans-serif; font-size: 12px; font-weight: bold;" dx="9" dy="1.5" transform="rotate(45,0,388)" y="388">Alexa (367)</text></g><g transform="translate(188,0)" class="phrase"><rect style="fill: red;" height="7.857000000000028" y="380.143" width="20" class="period"/><rect style="fill: grey;" height="0.07759999999996126" y="380.0654" width="20" class="period"/><text style="font-family: &quot;Helvetica&quot;,sans-serif; font-size: 12px; font-weight: bold;" dx="9" dy="1.5" transform="rotate(45,0,388)" y="388">Alexander (59)</text></g><g transform="translate(218,0)" class="phrase"><rect style="fill: red;" height="6.84820000000002" y="381.1518" width="20" class="period"/><rect style="fill: grey;" height="0" y="381.1518" width="20" class="period"/><text style="font-family: &quot;Helvetica&quot;,sans-serif; font-size: 12px; font-weight: bold;" dx="9" dy="1.5" transform="rotate(45,0,388)" y="388">Alexander Matt (2)</text></g><g transform="translate(248,0)" class="phrase"><rect style="fill: blue;" height="275.1308" y="112.86919999999998" width="20" class="period"/><rect style="fill: grey;" height="2.754799999999989" y="110.11439999999999" width="20" class="period"/><text style="font-family: &quot;Helvetica&quot;,sans-serif; font-size: 12px; font-weight: bold;" dx="9" dy="1.5" transform="rotate(45,0,388)" y="388">Al (3790)</text></g><g transform="translate(278,0)" class="phrase"><rect style="fill: blue;" height="31.893599999999992" y="356.1064" width="20" class="period"/><rect style="fill: grey;" height="0.6208000000000311" y="355.4856" width="20" class="period"/><text style="font-family: &quot;Helvetica&quot;,sans-serif; font-size: 12px; font-weight: bold;" dx="9" dy="1.5" transform="rotate(45,0,388)" y="388">Ale (671)</text></g><g transform="translate(308,0)" class="phrase"><rect style="fill: blue;" height="31.563800000000015" y="356.4362" width="20" class="period"/><rect style="fill: grey;" height="0.5237999999999943" y="355.9124" width="20" class="period"/><text style="font-family: &quot;Helvetica&quot;,sans-serif; font-size: 12px; font-weight: bold;" dx="9" dy="1.5" transform="rotate(45,0,388)" y="388">Alex (492)</text></g><g transform="translate(338,0)" class="phrase"><rect style="fill: blue;" height="23.105399999999975" y="364.8946" width="20" class="period"/><rect style="fill: grey;" height="0.40739999999999554" y="364.48720000000003" width="20" class="period"/><text style="font-family: &quot;Helvetica&quot;,sans-serif; font-size: 12px; font-weight: bold;" dx="9" dy="1.5" transform="rotate(45,0,388)" y="388">Alexa (367)</text></g><g transform="translate(368,0)" class="phrase"><rect style="fill: blue;" height="5.819999999999993" y="382.18" width="20" class="period"/><rect style="fill: grey;" height="0.11639999999999873" y="382.0636" width="20" class="period"/><text style="font-family: &quot;Helvetica&quot;,sans-serif; font-size: 12px; font-weight: bold;" dx="9" dy="1.5" transform="rotate(45,0,388)" y="388">Alexander (59)</text></g><g transform="translate(398,0)" class="phrase"><rect style="fill: blue;" height="4.578399999999988" y="383.4216" width="20" class="period"/><rect style="fill: grey;" height="0.05819999999999936" y="383.3634" width="20" class="period"/><text style="font-family: &quot;Helvetica&quot;,sans-serif; font-size: 12px; font-weight: bold;" dx="9" dy="1.5" transform="rotate(45,0,388)" y="388">Alexander Matt (2)</text></g><g transform="translate(64,0)" class="axis"><g transform="translate(0,388)" style="opacity: 1;" class="tick major"><line style="fill: none; stroke: black; shape-rendering: crispedges;" y2="0" x2="-6"/><text style="text-anchor: end; font-size: 10px; font-family: &quot;Helvetica&quot;,sans-serif;" dy=".32em" y="0" x="-9">0</text></g><g transform="translate(0,339.5)" style="opacity: 1;" class="tick major"><line style="fill: none; stroke: black; shape-rendering: crispedges;" y2="0" x2="-6"/><text style="text-anchor: end; font-size: 10px; font-family: &quot;Helvetica&quot;,sans-serif;" dy=".32em" y="0" x="-9">500</text></g><g transform="translate(0,291)" style="opacity: 1;" class="tick major"><line style="fill: none; stroke: black; shape-rendering: crispedges;" y2="0" x2="-6"/><text style="text-anchor: end; font-size: 10px; font-family: &quot;Helvetica&quot;,sans-serif;" dy=".32em" y="0" x="-9">1,000</text></g><g transform="translate(0,242.5)" style="opacity: 1;" class="tick major"><line style="fill: none; stroke: black; shape-rendering: crispedges;" y2="0" x2="-6"/><text style="text-anchor: end; font-size: 10px; font-family: &quot;Helvetica&quot;,sans-serif;" dy=".32em" y="0" x="-9">1,500</text></g><g transform="translate(0,194)" style="opacity: 1;" class="tick major"><line style="fill: none; stroke: black; shape-rendering: crispedges;" y2="0" x2="-6"/><text style="text-anchor: end; font-size: 10px; font-family: &quot;Helvetica&quot;,sans-serif;" dy=".32em" y="0" x="-9">2,000</text></g><g transform="translate(0,145.5)" style="opacity: 1;" class="tick major"><line style="fill: none; stroke: black; shape-rendering: crispedges;" y2="0" x2="-6"/><text style="text-anchor: end; font-size: 10px; font-family: &quot;Helvetica&quot;,sans-serif;" dy=".32em" y="0" x="-9">2,500</text></g><g transform="translate(0,97)" style="opacity: 1;" class="tick major"><line style="fill: none; stroke: black; shape-rendering: crispedges;" y2="0" x2="-6"/><text style="text-anchor: end; font-size: 10px; font-family: &quot;Helvetica&quot;,sans-serif;" dy=".32em" y="0" x="-9">3,000</text></g><g transform="translate(0,48.5)" style="opacity: 1;" class="tick major"><line style="fill: none; stroke: black; shape-rendering: crispedges;" y2="0" x2="-6"/><text style="text-anchor: end; font-size: 10px; font-family: &quot;Helvetica&quot;,sans-serif;" dy=".32em" y="0" x="-9">3,500</text></g><g transform="translate(0,0)" style="opacity: 1;" class="tick major"><line style="fill: none; stroke: black; shape-rendering: crispedges;" y2="0" x2="-6"/><text style="text-anchor: end; font-size: 10px; font-family: &quot;Helvetica&quot;,sans-serif;" dy=".32em" y="0" x="-9">4,000</text></g><path style="fill: none; stroke: black; shape-rendering: crispedges;" d="M-6,0H0V388H-6" class="domain"/></g><text transform="rotate(-90,15,194)" text-anchor="middle" y="194" x="15" class="axis-label">Time (ms)</text><line style="fill: none; stroke: black; shape-rendering: crispedges;" stroke="black" y2="388" x2="660" y1="388" x1="64" class="axis"/></g><text style="font-family: serif;" text-anchor="middle" y="22" x="337.5">Firefox 19.0.2</text><g class="legend"><rect style="fill: green;" x="573" y="48" height="10" width="10" class="legend-item"/><rect style="fill: blue;" x="573" y="66" height="10" width="10" class="legend-item"/><rect style="fill: red;" x="573" y="84" height="10" width="10" class="legend-item"/><rect style="fill: grey;" x="573" y="102" height="10" width="10" class="legend-item"/><text style="font-family: &quot;Helvetica&quot;,sans-serif; font-size: 12px; letter-spacing: 0.1em;" dy=".8em" y="48" x="587">WebSQL</text><text style="font-family: &quot;Helvetica&quot;,sans-serif; font-size: 12px; letter-spacing: 0.1em;" dy=".8em" y="66" x="587">IndexedDB</text><text style="font-family: &quot;Helvetica&quot;,sans-serif; font-size: 12px; letter-spacing: 0.1em;" dy=".8em" y="84" x="587">localStorage</text><text style="font-family: &quot;Helvetica&quot;,sans-serif; font-size: 12px; letter-spacing: 0.1em;" dy=".8em" y="102" x="587">processing</text></g></svg>