<svg xmlns="http://www.w3.org/2000/svg" height="550" width="700"><g transform="translate(6,36)" class="barchart"><g transform="translate(68,0)" class="phrase"><rect style="fill: red;" height="29.720799999999997" y="358.2792" width="20" class="period"/><rect style="fill: grey;" height="1.552000000000021" y="356.7272" width="20" class="period"/><text style="font-family: &quot;Helvetica&quot;,sans-serif; font-size: 12px; font-weight: bold;" dx="9" dy="1.5" transform="rotate(45,0,388)" y="388">Ale (671)</text></g><g transform="translate(98,0)" class="phrase"><rect style="fill: red;" height="28.789600000000007" y="359.2104" width="20" class="period"/><rect style="fill: grey;" height="1.2416000000000054" y="357.9688" width="20" class="period"/><text style="font-family: &quot;Helvetica&quot;,sans-serif; font-size: 12px; font-weight: bold;" dx="9" dy="1.5" transform="rotate(45,0,388)" y="388">Alex (492)</text></g><g transform="translate(128,0)" class="phrase"><rect style="fill: red;" height="28.944799999999987" y="359.0552" width="20" class="period"/><rect style="fill: grey;" height="0.9311999999999898" y="358.124" width="20" class="period"/><text style="font-family: &quot;Helvetica&quot;,sans-serif; font-size: 12px; font-weight: bold;" dx="9" dy="1.5" transform="rotate(45,0,388)" y="388">Alexa (367)</text></g><g transform="translate(158,0)" class="phrase"><rect style="fill: red;" height="31.427999999999997" y="356.572" width="20" class="period"/><rect style="fill: grey;" height="0.31040000000001555" y="356.2616" width="20" class="period"/><text style="font-family: &quot;Helvetica&quot;,sans-serif; font-size: 12px; font-weight: bold;" dx="9" dy="1.5" transform="rotate(45,0,388)" y="388">Alexander (59)</text></g><g transform="translate(188,0)" class="phrase"><rect style="fill: red;" height="27.392800000000022" y="360.6072" width="20" class="period"/><rect style="fill: grey;" height="0" y="360.6072" width="20" class="period"/><text style="font-family: &quot;Helvetica&quot;,sans-serif; font-size: 12px; font-weight: bold;" dx="9" dy="1.5" transform="rotate(45,0,388)" y="388">Alexander Matt (2)</text></g><g transform="translate(218,0)" class="phrase"><rect style="fill: blue;" height="127.57440000000003" y="260.4256" width="20" class="period"/><rect style="fill: grey;" height="2.483199999999954" y="257.9424" width="20" class="period"/><text style="font-family: &quot;Helvetica&quot;,sans-serif; font-size: 12px; font-weight: bold;" dx="9" dy="1.5" transform="rotate(45,0,388)" y="388">Ale (671)</text></g><g transform="translate(248,0)" class="phrase"><rect style="fill: blue;" height="126.2552" y="261.7448" width="20" class="period"/><rect style="fill: grey;" height="2.095199999999977" y="259.6496" width="20" class="period"/><text style="font-family: &quot;Helvetica&quot;,sans-serif; font-size: 12px; font-weight: bold;" dx="9" dy="1.5" transform="rotate(45,0,388)" y="388">Alex (492)</text></g><g transform="translate(278,0)" class="phrase"><rect style="fill: blue;" height="92.42160000000001" y="295.5784" width="20" class="period"/><rect style="fill: grey;" height="1.6295999999999822" y="293.9488" width="20" class="period"/><text style="font-family: &quot;Helvetica&quot;,sans-serif; font-size: 12px; font-weight: bold;" dx="9" dy="1.5" transform="rotate(45,0,388)" y="388">Alexa (367)</text></g><g transform="translate(308,0)" class="phrase"><rect style="fill: blue;" height="23.279999999999973" y="364.72" width="20" class="period"/><rect style="fill: grey;" height="0.46560000000005175" y="364.2544" width="20" class="period"/><text style="font-family: &quot;Helvetica&quot;,sans-serif; font-size: 12px; font-weight: bold;" dx="9" dy="1.5" transform="rotate(45,0,388)" y="388">Alexander (59)</text></g><g transform="translate(338,0)" class="phrase"><rect style="fill: blue;" height="18.313600000000008" y="369.6864" width="20" class="period"/><rect style="fill: grey;" height="0.23279999999999745" y="369.4536" width="20" class="period"/><text style="font-family: &quot;Helvetica&quot;,sans-serif; font-size: 12px; font-weight: bold;" dx="9" dy="1.5" transform="rotate(45,0,388)" y="388">Alexander Matt (2)</text></g><g transform="translate(64,0)" class="axis"><g transform="translate(0,388)" style="opacity: 1;" class="tick major"><line style="fill: none; stroke: black; shape-rendering: crispedges;" y2="0" x2="-6"/><text style="text-anchor: end; font-size: 10px; font-family: &quot;Helvetica&quot;,sans-serif;" dy=".32em" y="0" x="-9">0</text></g><g transform="translate(0,349.2)" style="opacity: 1;" class="tick major"><line style="fill: none; stroke: black; shape-rendering: crispedges;" y2="0" x2="-6"/><text style="text-anchor: end; font-size: 10px; font-family: &quot;Helvetica&quot;,sans-serif;" dy=".32em" y="0" x="-9">100</text></g><g transform="translate(0,310.4)" style="opacity: 1;" class="tick major"><line style="fill: none; stroke: black; shape-rendering: crispedges;" y2="0" x2="-6"/><text style="text-anchor: end; font-size: 10px; font-family: &quot;Helvetica&quot;,sans-serif;" dy=".32em" y="0" x="-9">200</text></g><g transform="translate(0,271.6)" style="opacity: 1;" class="tick major"><line style="fill: none; stroke: black; shape-rendering: crispedges;" y2="0" x2="-6"/><text style="text-anchor: end; font-size: 10px; font-family: &quot;Helvetica&quot;,sans-serif;" dy=".32em" y="0" x="-9">300</text></g><g transform="translate(0,232.79999999999998)" style="opacity: 1;" class="tick major"><line style="fill: none; stroke: black; shape-rendering: crispedges;" y2="0" x2="-6"/><text style="text-anchor: end; font-size: 10px; font-family: &quot;Helvetica&quot;,sans-serif;" dy=".32em" y="0" x="-9">400</text></g><g transform="translate(0,194)" style="opacity: 1;" class="tick major"><line style="fill: none; stroke: black; shape-rendering: crispedges;" y2="0" x2="-6"/><text style="text-anchor: end; font-size: 10px; font-family: &quot;Helvetica&quot;,sans-serif;" dy=".32em" y="0" x="-9">500</text></g><g transform="translate(0,155.20000000000002)" style="opacity: 1;" class="tick major"><line style="fill: none; stroke: black; shape-rendering: crispedges;" y2="0" x2="-6"/><text style="text-anchor: end; font-size: 10px; font-family: &quot;Helvetica&quot;,sans-serif;" dy=".32em" y="0" x="-9">600</text></g><g transform="translate(0,116.39999999999998)" style="opacity: 1;" class="tick major"><line style="fill: none; stroke: black; shape-rendering: crispedges;" y2="0" x2="-6"/><text style="text-anchor: end; font-size: 10px; font-family: &quot;Helvetica&quot;,sans-serif;" dy=".32em" y="0" x="-9">700</text></g><g transform="translate(0,77.59999999999997)" style="opacity: 1;" class="tick major"><line style="fill: none; stroke: black; shape-rendering: crispedges;" y2="0" x2="-6"/><text style="text-anchor: end; font-size: 10px; font-family: &quot;Helvetica&quot;,sans-serif;" dy=".32em" y="0" x="-9">800</text></g><g transform="translate(0,38.80000000000001)" style="opacity: 1;" class="tick major"><line style="fill: none; stroke: black; shape-rendering: crispedges;" y2="0" x2="-6"/><text style="text-anchor: end; font-size: 10px; font-family: &quot;Helvetica&quot;,sans-serif;" dy=".32em" y="0" x="-9">900</text></g><g transform="translate(0,0)" style="opacity: 1;" class="tick major"><line style="fill: none; stroke: black; shape-rendering: crispedges;" y2="0" x2="-6"/><text style="text-anchor: end; font-size: 10px; font-family: &quot;Helvetica&quot;,sans-serif;" dy=".32em" y="0" x="-9">1,000</text></g><path style="fill: none; stroke: black; shape-rendering: crispedges;" d="M-6,0H0V388H-6" class="domain"/></g><text transform="rotate(-90,15,194)" text-anchor="middle" y="194" x="15" class="axis-label">Time (ms)</text><line style="fill: none; stroke: black; shape-rendering: crispedges;" stroke="black" y2="388" x2="660" y1="388" x1="64" class="axis"/></g><text style="font-family: serif;" text-anchor="middle" y="22" x="337.5">Firefox 19.0.2</text><g class="legend"><rect style="fill: green;" x="573" y="48" height="10" width="10" class="legend-item"/><rect style="fill: blue;" x="573" y="66" height="10" width="10" class="legend-item"/><rect style="fill: red;" x="573" y="84" height="10" width="10" class="legend-item"/><rect style="fill: grey;" x="573" y="102" height="10" width="10" class="legend-item"/><text style="font-family: &quot;Helvetica&quot;,sans-serif; font-size: 12px; letter-spacing: 0.1em;" dy=".8em" y="48" x="587">WebSQL</text><text style="font-family: &quot;Helvetica&quot;,sans-serif; font-size: 12px; letter-spacing: 0.1em;" dy=".8em" y="66" x="587">IndexedDB</text><text style="font-family: &quot;Helvetica&quot;,sans-serif; font-size: 12px; letter-spacing: 0.1em;" dy=".8em" y="84" x="587">localStorage</text><text style="font-family: &quot;Helvetica&quot;,sans-serif; font-size: 12px; letter-spacing: 0.1em;" dy=".8em" y="102" x="587">processing</text></g></svg>