<svg xmlns="http://www.w3.org/2000/svg" height="550" width="700"><g transform="translate(6,36)" class="barchart"><g transform="translate(68,0)" class="phrase"><rect style="fill: red;" height="19.865599999999972" y="368.1344" width="20" class="period"/><rect style="fill: grey;" height="1.7848000000000184" y="366.3496" width="20" class="period"/><text style="font-family: &quot;Helvetica&quot;,sans-serif; font-size: 12px; font-weight: bold;" dx="9" dy="1.5" transform="rotate(45,0,388)" y="388">Ale (671)</text></g><g transform="translate(98,0)" class="phrase"><rect style="fill: red;" height="19.399999999999977" y="368.6" width="20" class="period"/><rect style="fill: grey;" height="1.2416000000000054" y="367.3584" width="20" class="period"/><text style="font-family: &quot;Helvetica&quot;,sans-serif; font-size: 12px; font-weight: bold;" dx="9" dy="1.5" transform="rotate(45,0,388)" y="388">Alex (492)</text></g><g transform="translate(128,0)" class="phrase"><rect style="fill: red;" height="18.85680000000002" y="369.1432" width="20" class="period"/><rect style="fill: grey;" height="0.9311999999999898" y="368.212" width="20" class="period"/><text style="font-family: &quot;Helvetica&quot;,sans-serif; font-size: 12px; font-weight: bold;" dx="9" dy="1.5" transform="rotate(45,0,388)" y="388">Alexa (367)</text></g><g transform="translate(158,0)" class="phrase"><rect style="fill: red;" height="20.486400000000003" y="367.5136" width="20" class="period"/><rect style="fill: grey;" height="0.23279999999999745" y="367.2808" width="20" class="period"/><text style="font-family: &quot;Helvetica&quot;,sans-serif; font-size: 12px; font-weight: bold;" dx="9" dy="1.5" transform="rotate(45,0,388)" y="388">Alexander (59)</text></g><g transform="translate(188,0)" class="phrase"><rect style="fill: red;" height="16.916800000000023" y="371.0832" width="20" class="period"/><rect style="fill: grey;" height="0.3879999999999768" y="370.6952" width="20" class="period"/><text style="font-family: &quot;Helvetica&quot;,sans-serif; font-size: 12px; font-weight: bold;" dx="9" dy="1.5" transform="rotate(45,0,388)" y="388">Alexander Matt (2)</text></g><g transform="translate(218,0)" class="phrase"><rect style="fill: blue;" height="142.86159999999998" y="245.13840000000002" width="20" class="period"/><rect style="fill: grey;" height="3.1040000000000134" y="242.0344" width="20" class="period"/><text style="font-family: &quot;Helvetica&quot;,sans-serif; font-size: 12px; font-weight: bold;" dx="9" dy="1.5" transform="rotate(45,0,388)" y="388">Ale (671)</text></g><g transform="translate(248,0)" class="phrase"><rect style="fill: blue;" height="102.74240000000003" y="285.25759999999997" width="20" class="period"/><rect style="fill: grey;" height="2.483199999999954" y="282.7744" width="20" class="period"/><text style="font-family: &quot;Helvetica&quot;,sans-serif; font-size: 12px; font-weight: bold;" dx="9" dy="1.5" transform="rotate(45,0,388)" y="388">Alex (492)</text></g><g transform="translate(278,0)" class="phrase"><rect style="fill: blue;" height="104.91519999999997" y="283.08480000000003" width="20" class="period"/><rect style="fill: grey;" height="1.8624000000000365" y="281.2224" width="20" class="period"/><text style="font-family: &quot;Helvetica&quot;,sans-serif; font-size: 12px; font-weight: bold;" dx="9" dy="1.5" transform="rotate(45,0,388)" y="388">Alexa (367)</text></g><g transform="translate(308,0)" class="phrase"><rect style="fill: blue;" height="14.66640000000001" y="373.3336" width="20" class="period"/><rect style="fill: grey;" height="0.31040000000001555" y="373.0232" width="20" class="period"/><text style="font-family: &quot;Helvetica&quot;,sans-serif; font-size: 12px; font-weight: bold;" dx="9" dy="1.5" transform="rotate(45,0,388)" y="388">Alexander (59)</text></g><g transform="translate(338,0)" class="phrase"><rect style="fill: blue;" height="8.148000000000025" y="379.852" width="20" class="period"/><rect style="fill: grey;" height="0.07759999999996126" y="379.7744" width="20" class="period"/><text style="font-family: &quot;Helvetica&quot;,sans-serif; font-size: 12px; font-weight: bold;" dx="9" dy="1.5" transform="rotate(45,0,388)" y="388">Alexander Matt (2)</text></g><g transform="translate(64,0)" class="axis"><g transform="translate(0,388)" style="opacity: 1;" class="tick major"><line style="fill: none; stroke: black; shape-rendering: crispedges;" y2="0" x2="-6"/><text style="text-anchor: end; font-size: 10px; font-family: &quot;Helvetica&quot;,sans-serif;" dy=".32em" y="0" x="-9">0</text></g><g transform="translate(0,349.2)" style="opacity: 1;" class="tick major"><line style="fill: none; stroke: black; shape-rendering: crispedges;" y2="0" x2="-6"/><text style="text-anchor: end; font-size: 10px; font-family: &quot;Helvetica&quot;,sans-serif;" dy=".32em" y="0" x="-9">100</text></g><g transform="translate(0,310.4)" style="opacity: 1;" class="tick major"><line style="fill: none; stroke: black; shape-rendering: crispedges;" y2="0" x2="-6"/><text style="text-anchor: end; font-size: 10px; font-family: &quot;Helvetica&quot;,sans-serif;" dy=".32em" y="0" x="-9">200</text></g><g transform="translate(0,271.6)" style="opacity: 1;" class="tick major"><line style="fill: none; stroke: black; shape-rendering: crispedges;" y2="0" x2="-6"/><text style="text-anchor: end; font-size: 10px; font-family: &quot;Helvetica&quot;,sans-serif;" dy=".32em" y="0" x="-9">300</text></g><g transform="translate(0,232.79999999999998)" style="opacity: 1;" class="tick major"><line style="fill: none; stroke: black; shape-rendering: crispedges;" y2="0" x2="-6"/><text style="text-anchor: end; font-size: 10px; font-family: &quot;Helvetica&quot;,sans-serif;" dy=".32em" y="0" x="-9">400</text></g><g transform="translate(0,194)" style="opacity: 1;" class="tick major"><line style="fill: none; stroke: black; shape-rendering: crispedges;" y2="0" x2="-6"/><text style="text-anchor: end; font-size: 10px; font-family: &quot;Helvetica&quot;,sans-serif;" dy=".32em" y="0" x="-9">500</text></g><g transform="translate(0,155.20000000000002)" style="opacity: 1;" class="tick major"><line style="fill: none; stroke: black; shape-rendering: crispedges;" y2="0" x2="-6"/><text style="text-anchor: end; font-size: 10px; font-family: &quot;Helvetica&quot;,sans-serif;" dy=".32em" y="0" x="-9">600</text></g><g transform="translate(0,116.39999999999998)" style="opacity: 1;" class="tick major"><line style="fill: none; stroke: black; shape-rendering: crispedges;" y2="0" x2="-6"/><text style="text-anchor: end; font-size: 10px; font-family: &quot;Helvetica&quot;,sans-serif;" dy=".32em" y="0" x="-9">700</text></g><g transform="translate(0,77.59999999999997)" style="opacity: 1;" class="tick major"><line style="fill: none; stroke: black; shape-rendering: crispedges;" y2="0" x2="-6"/><text style="text-anchor: end; font-size: 10px; font-family: &quot;Helvetica&quot;,sans-serif;" dy=".32em" y="0" x="-9">800</text></g><g transform="translate(0,38.80000000000001)" style="opacity: 1;" class="tick major"><line style="fill: none; stroke: black; shape-rendering: crispedges;" y2="0" x2="-6"/><text style="text-anchor: end; font-size: 10px; font-family: &quot;Helvetica&quot;,sans-serif;" dy=".32em" y="0" x="-9">900</text></g><g transform="translate(0,0)" style="opacity: 1;" class="tick major"><line style="fill: none; stroke: black; shape-rendering: crispedges;" y2="0" x2="-6"/><text style="text-anchor: end; font-size: 10px; font-family: &quot;Helvetica&quot;,sans-serif;" dy=".32em" y="0" x="-9">1,000</text></g><path style="fill: none; stroke: black; shape-rendering: crispedges;" d="M-6,0H0V388H-6" class="domain"/></g><text transform="rotate(-90,15,194)" text-anchor="middle" y="194" x="15" class="axis-label">Time (ms)</text><line style="fill: none; stroke: black; shape-rendering: crispedges;" stroke="black" y2="388" x2="660" y1="388" x1="64" class="axis"/></g><text style="font-family: serif;" text-anchor="middle" y="22" x="337.5">Firefox 20.0</text><g class="legend"><rect style="fill: green;" x="573" y="48" height="10" width="10" class="legend-item"/><rect style="fill: blue;" x="573" y="66" height="10" width="10" class="legend-item"/><rect style="fill: red;" x="573" y="84" height="10" width="10" class="legend-item"/><rect style="fill: grey;" x="573" y="102" height="10" width="10" class="legend-item"/><text style="font-family: &quot;Helvetica&quot;,sans-serif; font-size: 12px; letter-spacing: 0.1em;" dy=".8em" y="48" x="587">WebSQL</text><text style="font-family: &quot;Helvetica&quot;,sans-serif; font-size: 12px; letter-spacing: 0.1em;" dy=".8em" y="66" x="587">IndexedDB</text><text style="font-family: &quot;Helvetica&quot;,sans-serif; font-size: 12px; letter-spacing: 0.1em;" dy=".8em" y="84" x="587">localStorage</text><text style="font-family: &quot;Helvetica&quot;,sans-serif; font-size: 12px; letter-spacing: 0.1em;" dy=".8em" y="102" x="587">processing</text></g></svg>