<svg xmlns="http://www.w3.org/2000/svg" height="550" width="700"><g transform="translate(6,36)" class="barchart"><g transform="translate(68,0)" class="phrase"><rect style="fill: red;" height="5.005200000000002" y="382.9948" width="20" class="period"/><rect style="fill: grey;" height="2.172799999999995" y="380.822" width="20" class="period"/><text style="font-family: &quot;Helvetica&quot;,sans-serif; font-size: 12px; font-weight: bold;" dx="9" dy="1.5" transform="rotate(45,0,388)" y="388">Al (3790)</text></g><g transform="translate(98,0)" class="phrase"><rect style="fill: red;" height="4.9664000000000215" y="383.0336" width="20" class="period"/><rect style="fill: grey;" height="0.44619999999997617" y="382.5874" width="20" class="period"/><text style="font-family: &quot;Helvetica&quot;,sans-serif; font-size: 12px; font-weight: bold;" dx="9" dy="1.5" transform="rotate(45,0,388)" y="388">Ale (671)</text></g><g transform="translate(128,0)" class="phrase"><rect style="fill: red;" height="4.850000000000023" y="383.15" width="20" class="period"/><rect style="fill: grey;" height="0.3103999999999587" y="382.8396" width="20" class="period"/><text style="font-family: &quot;Helvetica&quot;,sans-serif; font-size: 12px; font-weight: bold;" dx="9" dy="1.5" transform="rotate(45,0,388)" y="388">Alex (492)</text></g><g transform="translate(158,0)" class="phrase"><rect style="fill: red;" height="4.714200000000005" y="383.2858" width="20" class="period"/><rect style="fill: grey;" height="0.23279999999999745" y="383.053" width="20" class="period"/><text style="font-family: &quot;Helvetica&quot;,sans-serif; font-size: 12px; font-weight: bold;" dx="9" dy="1.5" transform="rotate(45,0,388)" y="388">Alexa (367)</text></g><g transform="translate(188,0)" class="phrase"><rect style="fill: red;" height="5.121600000000001" y="382.8784" width="20" class="period"/><rect style="fill: grey;" height="0.05819999999999936" y="382.8202" width="20" class="period"/><text style="font-family: &quot;Helvetica&quot;,sans-serif; font-size: 12px; font-weight: bold;" dx="9" dy="1.5" transform="rotate(45,0,388)" y="388">Alexander (59)</text></g><g transform="translate(218,0)" class="phrase"><rect style="fill: red;" height="4.229199999999992" y="383.7708" width="20" class="period"/><rect style="fill: grey;" height="0.09699999999997999" y="383.6738" width="20" class="period"/><text style="font-family: &quot;Helvetica&quot;,sans-serif; font-size: 12px; font-weight: bold;" dx="9" dy="1.5" transform="rotate(45,0,388)" y="388">Alexander Matt (2)</text></g><g transform="translate(248,0)" class="phrase"><rect style="fill: blue;" height="364.7588" y="23.241199999999992" width="20" class="period"/><rect style="fill: grey;" height="2.366800000000012" y="20.87439999999998" width="20" class="period"/><text style="font-family: &quot;Helvetica&quot;,sans-serif; font-size: 12px; font-weight: bold;" dx="9" dy="1.5" transform="rotate(45,0,388)" y="388">Al (3790)</text></g><g transform="translate(278,0)" class="phrase"><rect style="fill: blue;" height="35.71539999999999" y="352.2846" width="20" class="period"/><rect style="fill: grey;" height="0.7760000000000105" y="351.5086" width="20" class="period"/><text style="font-family: &quot;Helvetica&quot;,sans-serif; font-size: 12px; font-weight: bold;" dx="9" dy="1.5" transform="rotate(45,0,388)" y="388">Ale (671)</text></g><g transform="translate(308,0)" class="phrase"><rect style="fill: blue;" height="25.685600000000022" y="362.3144" width="20" class="period"/><rect style="fill: grey;" height="0.6207999999999743" y="361.6936" width="20" class="period"/><text style="font-family: &quot;Helvetica&quot;,sans-serif; font-size: 12px; font-weight: bold;" dx="9" dy="1.5" transform="rotate(45,0,388)" y="388">Alex (492)</text></g><g transform="translate(338,0)" class="phrase"><rect style="fill: blue;" height="26.22879999999998" y="361.7712" width="20" class="period"/><rect style="fill: grey;" height="0.4655999999999949" y="361.3056" width="20" class="period"/><text style="font-family: &quot;Helvetica&quot;,sans-serif; font-size: 12px; font-weight: bold;" dx="9" dy="1.5" transform="rotate(45,0,388)" y="388">Alexa (367)</text></g><g transform="translate(368,0)" class="phrase"><rect style="fill: blue;" height="3.6666000000000167" y="384.3334" width="20" class="period"/><rect style="fill: grey;" height="0.07759999999996126" y="384.2558" width="20" class="period"/><text style="font-family: &quot;Helvetica&quot;,sans-serif; font-size: 12px; font-weight: bold;" dx="9" dy="1.5" transform="rotate(45,0,388)" y="388">Alexander (59)</text></g><g transform="translate(398,0)" class="phrase"><rect style="fill: blue;" height="2.0369999999999777" y="385.963" width="20" class="period"/><rect style="fill: grey;" height="0.019400000000018736" y="385.9436" width="20" class="period"/><text style="font-family: &quot;Helvetica&quot;,sans-serif; font-size: 12px; font-weight: bold;" dx="9" dy="1.5" transform="rotate(45,0,388)" y="388">Alexander Matt (2)</text></g><g transform="translate(64,0)" class="axis"><g transform="translate(0,388)" style="opacity: 1;" class="tick major"><line style="fill: none; stroke: black; shape-rendering: crispedges;" y2="0" x2="-6"/><text style="text-anchor: end; font-size: 10px; font-family: &quot;Helvetica&quot;,sans-serif;" dy=".32em" y="0" x="-9">0</text></g><g transform="translate(0,339.5)" style="opacity: 1;" class="tick major"><line style="fill: none; stroke: black; shape-rendering: crispedges;" y2="0" x2="-6"/><text style="text-anchor: end; font-size: 10px; font-family: &quot;Helvetica&quot;,sans-serif;" dy=".32em" y="0" x="-9">500</text></g><g transform="translate(0,291)" style="opacity: 1;" class="tick major"><line style="fill: none; stroke: black; shape-rendering: crispedges;" y2="0" x2="-6"/><text style="text-anchor: end; font-size: 10px; font-family: &quot;Helvetica&quot;,sans-serif;" dy=".32em" y="0" x="-9">1,000</text></g><g transform="translate(0,242.5)" style="opacity: 1;" class="tick major"><line style="fill: none; stroke: black; shape-rendering: crispedges;" y2="0" x2="-6"/><text style="text-anchor: end; font-size: 10px; font-family: &quot;Helvetica&quot;,sans-serif;" dy=".32em" y="0" x="-9">1,500</text></g><g transform="translate(0,194)" style="opacity: 1;" class="tick major"><line style="fill: none; stroke: black; shape-rendering: crispedges;" y2="0" x2="-6"/><text style="text-anchor: end; font-size: 10px; font-family: &quot;Helvetica&quot;,sans-serif;" dy=".32em" y="0" x="-9">2,000</text></g><g transform="translate(0,145.5)" style="opacity: 1;" class="tick major"><line style="fill: none; stroke: black; shape-rendering: crispedges;" y2="0" x2="-6"/><text style="text-anchor: end; font-size: 10px; font-family: &quot;Helvetica&quot;,sans-serif;" dy=".32em" y="0" x="-9">2,500</text></g><g transform="translate(0,97)" style="opacity: 1;" class="tick major"><line style="fill: none; stroke: black; shape-rendering: crispedges;" y2="0" x2="-6"/><text style="text-anchor: end; font-size: 10px; font-family: &quot;Helvetica&quot;,sans-serif;" dy=".32em" y="0" x="-9">3,000</text></g><g transform="translate(0,48.5)" style="opacity: 1;" class="tick major"><line style="fill: none; stroke: black; shape-rendering: crispedges;" y2="0" x2="-6"/><text style="text-anchor: end; font-size: 10px; font-family: &quot;Helvetica&quot;,sans-serif;" dy=".32em" y="0" x="-9">3,500</text></g><g transform="translate(0,0)" style="opacity: 1;" class="tick major"><line style="fill: none; stroke: black; shape-rendering: crispedges;" y2="0" x2="-6"/><text style="text-anchor: end; font-size: 10px; font-family: &quot;Helvetica&quot;,sans-serif;" dy=".32em" y="0" x="-9">4,000</text></g><path style="fill: none; stroke: black; shape-rendering: crispedges;" d="M-6,0H0V388H-6" class="domain"/></g><text transform="rotate(-90,15,194)" text-anchor="middle" y="194" x="15" class="axis-label">Time (ms)</text><line style="fill: none; stroke: black; shape-rendering: crispedges;" stroke="black" y2="388" x2="660" y1="388" x1="64" class="axis"/></g><text style="font-family: serif;" text-anchor="middle" y="22" x="337.5">Firefox 20.0</text><g class="legend"><rect style="fill: green;" x="573" y="48" height="10" width="10" class="legend-item"/><rect style="fill: blue;" x="573" y="66" height="10" width="10" class="legend-item"/><rect style="fill: red;" x="573" y="84" height="10" width="10" class="legend-item"/><rect style="fill: grey;" x="573" y="102" height="10" width="10" class="legend-item"/><text style="font-family: &quot;Helvetica&quot;,sans-serif; font-size: 12px; letter-spacing: 0.1em;" dy=".8em" y="48" x="587">WebSQL</text><text style="font-family: &quot;Helvetica&quot;,sans-serif; font-size: 12px; letter-spacing: 0.1em;" dy=".8em" y="66" x="587">IndexedDB</text><text style="font-family: &quot;Helvetica&quot;,sans-serif; font-size: 12px; letter-spacing: 0.1em;" dy=".8em" y="84" x="587">localStorage</text><text style="font-family: &quot;Helvetica&quot;,sans-serif; font-size: 12px; letter-spacing: 0.1em;" dy=".8em" y="102" x="587">processing</text></g></svg>